<svg xmlns="http://www.w3.org/2000/svg" xmlns:xlink="http://www.w3.org/1999/xlink" width="24" height="24" viewBox="0 0 24 24">
    <defs>
        <path id="a" d="M0 0h24v24H0z"/>
    </defs>
    <g fill="none" fill-rule="evenodd">
        <path d="M-6-6h36v36H-6z"/>
        <g>
            <mask id="b" fill="#fff">
                <use xlink:href="#a"/>
            </mask>
            <path fill="#FFF" d="M18.406 4.155a1.44 1.44 0 1 0 0 2.881 1.44 1.44 0 0 0 0-2.881M12 16a4 4 0 1 1 0-8 4 4 0 0 1 0 8m0-10.162a6.162 6.162 0 1 0 0 12.325 6.162 6.162 0 0 0 0-12.325M12 0C8.741 0 8.333.014 7.052.072 2.695.272.273 2.69.073 7.052.013 8.332 0 8.74 0 12c0 3.259.013 3.668.072 4.948.2 4.358 2.618 6.78 6.98 6.98C8.333 23.986 8.742 24 12 24c3.26 0 3.668-.014 4.948-.072 4.354-.2 6.782-2.618 6.98-6.98.058-1.28.072-1.69.072-4.948 0-3.26-.014-3.667-.073-4.947-.195-4.354-2.617-6.78-6.978-6.98C15.67.013 15.26 0 12 0m0 2.163c3.204 0 3.584.012 4.85.07 3.251.148 4.771 1.69 4.918 4.919.06 1.265.07 1.645.07 4.849 0 3.205-.012 3.584-.07 4.849-.148 3.225-1.663 4.77-4.919 4.919-1.265.058-1.643.07-4.849.07-3.204 0-3.584-.012-4.849-.07-3.26-.15-4.77-1.7-4.919-4.92-.058-1.265-.07-1.644-.07-4.85 0-3.203.013-3.582.07-4.848.15-3.227 1.664-4.771 4.92-4.92 1.265-.056 1.644-.068 4.848-.068" mask="url(#b)"/>
        </g>
    </g>
</svg>
